<svg xmlns="http://www.w3.org/2000/svg" width="25" height="25" viewBox="0 0 25 25">
    <path fill="#000"
          d="M 12.5 0 C 5.602137 0 0 5.6021 0 12.5 C 0 19.3978 5.602137 25 12.5 25 C 19.397863 25 25 19.3978 25 12.5 C 25 5.6021 19.397863 0 12.5 0 z M 12.5 0.96875 C 18.878213 0.96875 24.03125 6.1217 24.03125 12.5 C 24.03125 18.8782 18.878213 24.0625 12.5 24.0625 C 6.1217872 24.0625 0.96875 18.8782 0.96875 12.5 C 0.96875 6.1217 6.1217872 0.96875 12.5 0.96875 z M 16.5 5.71875 L 15.78125 6.4375 L 16.34375 7 L 6 7 L 6 8 L 16.34375 8 L 15.78125 8.5625 L 16.5 9.28125 L 18.25 7.5 L 16.5 5.71875 z M 19 7 C 19.00001 9.4528 17.265865 11.48265 14.9375 11.90625 C 14.670999 10.81285 13.672241 10 12.5 10 C 11.267667 10 10.23185 10.91625 10.03125 12.09375 C 7.1838134 12.55425 4.9999864 15.0247 5 18 L 6 18 C 5.9999884 15.5538 7.7752651 13.52465 10.09375 13.09375 C 10.361114 14.18585 11.328615 15 12.5 15 C 13.731009 15 14.766583 14.08195 14.96875 12.90625 C 17.826947 12.45445 20.000013 9.9827 20 7 L 19 7 z M 12.5 11 C 13.334349 11 14 11.6656 14 12.5 C 14 13.3343 13.334349 14 12.5 14 C 11.665651 14 11 13.3343 11 12.5 C 11 11.6656 11.665651 11 12.5 11 z M 9.53125 15.71875 L 7.75 17.5 L 9.53125 19.28125 L 10.25 18.5625 L 9.6875 18 L 20.03125 18 L 20.03125 17 L 9.6875 17 L 10.25 16.4375 L 9.53125 15.71875 z "
          color="#000" font-family="Sans" font-weight="400" overflow="visible"
          style="text-indent:0;text-align:start;line-height:normal;text-transform:none;block-progression:tb;marker:none;-inkscape-font-specification:Sans"/>
</svg>